# xmcd CD database file
#
# Track frame offsets:
#	150
#	12045
#	24111
#	33544
#	56707
#	73923
#	80742
#	96667
#	113453
#	126213
#	130095
#	140814
#	144649
#	161872
#	167905
#	181421
#	183976
#	185972
#	186988
#	194432
#	205073
#	206267
#	218363
#	235710
#
# Disc length: 3372 seconds
#
# Revision: 1
# Processed by: cddbd v1.5.1PL2 Copyright (c) Steve Scherf et al.
# Submitted via: CDex 1.51
#
DISCID=670d2a18
DTITLE=Samba Salad - Linke Soep
DYEAR=2004
DGENRE=Salsa
TTITLE0=Weg
TTITLE1=Plekje
TTITLE2=Niks gedaan
TTITLE3=De zee
TTITLE4=Linke soep
TTITLE5=Sopa plena
TTITLE6=Ik durf alles
TTITLE7=Tamtam konijn
TTITLE8=Donker
TTITLE9=Eén kind is het niet
TTITLE10=Durfal
TTITLE11=Drie is zes
TTITLE12=Vrienden voor altijd
TTITLE13=Met Zonder
TTITLE14=Bad
TTITLE15=Zonder
TTITLE16=Zoveel
TTITLE17=Zes uur
TTITLE18=Tijd
TTITLE19=Zonder jou
TTITLE20=Kusje
TTITLE21=Plekje (instrumentaal)
TTITLE22=Linke Soep (instrumentaal)
TTITLE23=Vrienden voor altijd (instrumentaal)
EXTD=YEAR: 2004
EXTT0=
EXTT1=
EXTT2=
EXTT3=
EXTT4=
EXTT5=
EXTT6=
EXTT7=
EXTT8=
EXTT9=
EXTT10=
EXTT11=
EXTT12=
EXTT13=
EXTT14=
EXTT15=
EXTT16=
EXTT17=
EXTT18=
EXTT19=
EXTT20=
EXTT21=
EXTT22=
EXTT23=
PLAYORDER=
